<?xml version="1.0" encoding="UTF-8" standalone="no"?>
<svg
   version="1.0"
   width="989.000000pt"
   height="396.000000pt"
   viewBox="0 0 989.000000 396.000000"
   preserveAspectRatio="xMidYMid meet"
   id="svg5"
   sodipodi:docname="NEN1Y501.svg"
   inkscape:version="1.3 (0e150ed, 2023-07-21)"
   xmlns:inkscape="http://www.inkscape.org/namespaces/inkscape"
   xmlns:sodipodi="http://sodipodi.sourceforge.net/DTD/sodipodi-0.dtd"
   xmlns="http://www.w3.org/2000/svg"
   xmlns:svg="http://www.w3.org/2000/svg">
  <defs
     id="defs5" />
  <sodipodi:namedview
     id="namedview5"
     pagecolor="#ffffff"
     bordercolor="#666666"
     borderopacity="1.0"
     inkscape:showpageshadow="2"
     inkscape:pageopacity="0.0"
     inkscape:pagecheckerboard="0"
     inkscape:deskcolor="#d1d1d1"
     inkscape:document-units="pt"
     inkscape:zoom="0.4469697"
     inkscape:cx="660"
     inkscape:cy="265.11864"
     inkscape:window-width="1512"
     inkscape:window-height="840"
     inkscape:window-x="0"
     inkscape:window-y="38"
     inkscape:window-maximized="1"
     inkscape:current-layer="svg5" />
  <metadata
     id="metadata1">&#10;Created by potrace 1.10, written by Peter Selinger 2001-2011&#10;</metadata>
  <g
     transform="matrix(0.32860145,0,0,-0.32860145,-256.20146,1181.8748)"
     fill="#000000"
     stroke="none"
     id="g5">
    <path
       d="m 1420,3553 c -81,-24 -120,-70 -120,-143 0,-47 33,-130 70,-178 12,-15 41,-56 66,-91 l 46,-64 -23,-51 c -13,-28 -24,-53 -26,-55 -1,-2 -10,2 -19,10 -13,11 -17,11 -25,-2 -4,-9 -17,-26 -27,-40 l -20,-23 -12,56 c -7,31 -16,62 -20,69 -13,20 -38,3 -45,-30 -4,-17 -10,-31 -14,-31 -3,0 -17,38 -30,85 -40,143 -73,176 -111,113 -45,-74 -6,-174 142,-365 26,-34 48,-65 48,-67 0,-7 -95,-121 -156,-188 -51,-56 -84,-108 -84,-135 0,-25 18,-13 44,31 14,24 54,75 88,113 35,38 79,88 99,113 l 35,43 57,-46 c 110,-89 177,-108 222,-62 30,29 32,78 10,170 -18,77 -18,97 0,121 14,18 15,18 39,-11 26,-32 24,-32 41,20 8,26 23,16 29,-20 7,-37 32,-48 42,-17 18,53 28,72 40,72 8,0 14,-9 14,-20 0,-11 -4,-20 -10,-20 -15,0 -12,-30 4,-36 8,-3 30,2 50,11 39,19 53,14 67,-22 7,-20 14,-24 33,-19 15,4 26,1 28,-6 3,-8 20,-6 59,9 30,12 75,24 101,28 26,3 57,14 70,24 l 22,19 -37,41 c -20,23 -37,46 -37,51 0,15 46,34 65,26 13,-5 14,-10 4,-27 -9,-17 -8,-20 3,-17 7,3 14,19 16,36 4,44 -24,58 -77,36 -22,-8 -42,-22 -45,-30 -6,-16 17,-68 34,-79 19,-12 10,-21 -37,-34 -44,-14 -47,-13 -65,8 -17,22 -17,23 4,41 21,17 21,17 -10,12 -20,-2 -32,0 -32,7 0,6 17,11 40,11 40,0 53,13 24,24 -24,9 -63,7 -86,-5 -15,-8 -18,-17 -14,-35 10,-37 -34,-33 -62,6 -28,37 -34,37 -67,3 -24,-26 -27,-27 -39,-10 -18,23 -31,22 -59,-9 -22,-23 -27,-24 -46,-13 -17,11 -25,11 -41,2 -13,-9 -27,-10 -43,-4 -18,7 -28,5 -40,-6 -17,-18 -37,-10 -37,15 0,9 -11,41 -25,71 l -25,54 24,61 c 52,130 69,192 69,246 0,79 -8,102 -45,126 -32,20 -108,35 -138,27 z m 126,-67 c 48,-48 47,-99 -7,-250 -23,-64 -44,-116 -48,-115 -10,0 -114,150 -138,199 -48,95 -20,172 67,189 78,15 90,13 126,-23 z m -373,-358 c 8,-24 21,-61 27,-83 21,-70 83,-195 97,-195 17,0 16,9 -2,53 -17,41 -20,117 -5,117 6,0 10,-9 10,-20 0,-33 41,-130 55,-130 7,0 19,16 25,35 11,33 30,48 30,24 0,-12 -79,-147 -90,-154 -21,-13 -178,218 -202,296 -8,29 -8,45 2,68 17,43 34,39 53,-11 z m 342,-118 c 21,-40 19,-50 -8,-50 -12,0 -33,-7 -46,-17 -13,-9 -22,-12 -19,-7 2,5 14,30 26,57 13,26 25,47 27,47 3,0 11,-13 20,-30 z m 405,-54 c 0,-7 -9,-16 -20,-19 -15,-4 -20,0 -20,14 0,12 7,19 20,19 11,0 20,-6 20,-14 z m 115,-36 c 21,-23 14,-35 -27,-45 -24,-6 -26,-5 -21,17 12,56 19,60 48,28 z m -524,-20 c 8,-21 16,-29 32,-27 18,2 23,-8 38,-73 27,-110 25,-136 -9,-154 -49,-26 -113,-2 -217,79 -16,13 -17,19 -7,33 6,9 23,38 37,65 23,43 45,61 45,37 0,-22 22,-8 35,23 23,55 32,59 46,17 z"
       id="path1" />
    <path
       d="m 2790,3252 c 0,-18 29,-52 43,-52 12,0 8,45 -5,58 -18,18 -38,14 -38,-6 z"
       id="path2" />
    <path
       d="m 2617,3103 c -12,-11 -8,-21 18,-49 29,-31 30,-37 11,-53 -12,-10 -18,-7 -31,18 -19,39 -32,39 -75,1 -19,-16 -42,-29 -50,-29 -18,0 -64,38 -79,68 -16,29 -47,26 -80,-6 -25,-26 -27,-33 -21,-88 4,-46 9,-61 23,-63 10,-2 17,3 17,12 0,22 16,20 34,-5 22,-32 44,-17 48,31 l 3,42 27,-21 c 36,-29 53,-26 84,14 14,19 30,35 34,35 4,0 13,-13 20,-30 8,-18 20,-30 31,-30 29,0 59,36 59,70 0,17 -9,39 -20,50 -11,11 -20,25 -20,30 0,11 -23,14 -33,3 z m -217,-133 c 0,-20 -5,-30 -15,-30 -10,0 -15,10 -15,30 0,20 5,30 15,30 10,0 15,-10 15,-30 z"
       id="path3" />
    <path
       d="m 2830,3005 c 0,-20 4,-26 18,-23 9,2 17,12 17,23 0,11 -8,21 -17,23 -14,3 -18,-3 -18,-23 z"
       id="path4" />
    <path
       d="m 3520,2799 c -25,-5 -117,-18 -205,-29 -88,-11 -196,-25 -240,-30 -125,-17 -404,-70 -449,-86 -37,-12 -109,-20 -78,-7 25,10 11,22 -20,16 -51,-10 -123,-56 -126,-81 -5,-32 20,-36 75,-12 64,28 246,76 361,94 51,8 96,17 100,20 4,2 133,20 287,40 154,20 305,39 335,44 41,5 56,12 58,25 4,19 -22,21 -98,6 z"
       id="path5" />
  </g>
</svg>
